{
  "title": "Chappie 2015 ENG CAM X264 MURD3R",
  "uid": 11747155,
  "size": 1384508944,
  "categoryP": "video",
  "categoryS": "movies",
  "magnet": "?xt=urn:btih:3b5a471b9cb742e0539f0441a5b19449b85c34be&amp;dn=+Chappie+2015+ENG+CAM+X264+MURD3R&amp;tr=udp%3A%2F%2Ftracker.openbittorrent.com%3A80&amp;tr=udp%3A%2F%2Fopen.demonii.com%3A1337&amp;tr=udp%3A%2F%2Ftracker.coppersurfer.tk%3A6969&amp;tr=udp%3A%2F%2Fexodus.desync.com%3A6969",
  "seeders": 40,
  "leechers": 6,
  "uploader": "makintos13",
  "files": 8,
  "time": 1426033652,
  "description": "screens:\n\n &lt;a href=&quot; http://imgsleek.com/img-550026ea666a0.html&quot; rel=&quot;nofollow&quot; target=&quot;_NEW&quot;&gt; http://imgsleek.com/img-550026ea666a0.html&lt;/a&gt;\n &lt;a href=&quot;\nhttp://imgsleek.com/img-550026ea7a219.html&quot; rel=&quot;nofollow&quot; target=&quot;_NEW&quot;&gt;\nhttp://imgsleek.com/img-550026ea7a219.html&lt;/a&gt;\n &lt;a href=&quot;\nhttp://imgsleek.com/img-550026ea7fce1.html&quot; rel=&quot;nofollow&quot; target=&quot;_NEW&quot;&gt;\nhttp://imgsleek.com/img-550026ea7fce1.html&lt;/a&gt;\n &lt;a href=&quot;\nhttp://imgsleek.com/img-550026ea859b6.html&quot; rel=&quot;nofollow&quot; target=&quot;_NEW&quot;&gt;\nhttp://imgsleek.com/img-550026ea859b6.html&lt;/a&gt;\n\nViDEO SOURCE.....RU....TY\nAUDiO SOURCE.....TiTAN...TY...\n\nChappie 2015 ENG CAM X264 MURD3R.mkv\n\nFormat : Matroska\nFormat version : Version 4 / Version 2\nFile size : 1.29 GiB\nDuration : 1h 53mn\nOverall bit rate : 1 631 Kbps\n\n\nVideo\nID : 1\nFormat : AVC\nFormat/Info : Advanced Video Codec\nFormat profile : &lt;a class=&quot;__cf_email__&quot; href=&quot;/cdn-cgi/l/email-protection&quot; data-cfemail=&quot;d89ab9abbdb4b1b6bd9894eaf6ea&quot;&gt;[email&amp;#160;protected]&lt;/a&gt;&lt;script cf-hash='f9e31' type=&quot;text/javascript&quot;&gt;\n/* &lt;![CDATA[ */!function(){try{var t=&quot;currentScript&quot;in document?document.currentScript:function(){for(var t=document.getElementsByTagName(&quot;script&quot;),e=t.length;e--;)if(t[e].getAttribute(&quot;cf-hash&quot;))return t[e]}();if(t&amp;&amp;t.previousSibling){var e,r,n,i,c=t.previousSibling,a=c.getAttribute(&quot;data-cfemail&quot;);if(a){for(e=&quot;&quot;,r=parseInt(a.substr(0,2),16),n=2;a.length-n;n+=2)i=parseInt(a.substr(n,2),16)^r,e+=String.fromCharCode(i);e=document.createTextNode(e),c.parentNode.replaceChild(e,c)}}}catch(u){}}();/* ]]&gt; */&lt;/script&gt;\nFormat settings, CABAC : No\nFormat settings, ReFrames : 1 frame\nCodec ID : V_MPEG4/ISO/AVC\nDuration : 1h 53mn\nBit rate : 1 500 Kbps\nWidth : 680 pixels\nHeight : 304 pixels\nDisplay aspect ratio : 2.35:1\nFrame rate mode : Constant\nFrame rate : 23.976 fps\nColor space : YUV\nChroma subsampling : 4:2:0\nBit depth : 8 bits\nScan type : Progressive\nBits/(Pixel*Frame) : 0.303\nStream size : 1.16 GiB (90%)\nWriting library : x264 core\n\n\nAudio\nID : 2\nFormat : MPEG Audio\nFormat version : Version 1\nFormat profile : Layer 3\nMode : Joint stereo\nMode extension : MS Stereo\nCodec ID : A_MPEG/L3\nCodec ID/Hint : MP3\nDuration : 1h 53mn\nBit rate mode : Constant\nBit rate : 128 Kbps\nChannel(s) : 2 channels\nSampling rate : 44.1 KHz\nCompression mode : Lossy\nDelay relative to video : 25s 400ms\nStream size : 104 MiB (8%)\nWriting library : LAME3.98.2\nDefault : Yes\nForced : No",
  "parsed": {
    "xt": "urn:btih:3b5a471b9cb742e0539f0441a5b19449b85c34be",
    "dn": " Chappie 2015 ENG CAM X264 MURD3R",
    "tr": [
      "udp://exodus.desync.com:6969",
      "udp://open.demonii.com:1337",
      "udp://tracker.coppersurfer.tk:6969",
      "udp://tracker.openbittorrent.com:80"
    ],
    "infoHash": "3b5a471b9cb742e0539f0441a5b19449b85c34be",
    "infoHashBuffer": {
      "type": "Buffer",
      "data": [
        59,
        90,
        71,
        27,
        156,
        183,
        66,
        224,
        83,
        159,
        4,
        65,
        165,
        177,
        148,
        73,
        184,
        92,
        52,
        190
      ]
    },
    "name": " Chappie 2015 ENG CAM X264 MURD3R",
    "announce": [
      "udp://exodus.desync.com:6969",
      "udp://open.demonii.com:1337",
      "udp://tracker.coppersurfer.tk:6969",
      "udp://tracker.openbittorrent.com:80"
    ],
    "urlList": []
  },
  "previous": 18,
  "peers": 12,
  "last_updated": "2016-12-26T21:47:44.809Z"
}